# This file uses centimeters as units for non-parametric coordinates.

mtllib WoodBox_Low.mtl
g default
v -4.999999 0.000000 4.999999
v -3.999998 0.000000 4.999999
v 3.999998 0.000000 4.999999
v 4.999999 0.000000 4.999999
v -4.999999 0.999999 4.999999
v -3.999998 0.999999 4.999999
v 3.999998 0.999999 4.999999
v 4.999999 0.999999 4.999999
v -4.999999 8.999998 4.999999
v -3.999998 8.999998 4.999999
v 3.999998 8.999998 4.999999
v 4.999999 8.999998 4.999999
v -4.999999 9.999999 4.999999
v -3.999998 9.999999 4.999999
v 3.999998 9.999999 4.999999
v 4.999999 9.999999 4.999999
v -4.999999 9.999999 3.999998
v -3.999998 9.999999 3.999998
v 3.999998 9.999999 3.999998
v 4.999999 9.999999 3.999998
v -4.999999 9.999999 -3.999998
v -3.999998 9.999999 -3.999998
v 3.999998 9.999999 -3.999998
v 4.999999 9.999999 -3.999998
v -4.999999 9.999999 -4.999999
v -3.999998 9.999999 -4.999999
v 3.999998 9.999999 -4.999999
v 4.999999 9.999999 -4.999999
v -4.999999 8.999998 -4.999999
v -3.999998 8.999998 -4.999999
v 3.999998 8.999998 -4.999999
v 4.999999 8.999998 -4.999999
v -4.999999 0.999999 -4.999999
v -3.999998 0.999999 -4.999999
v 3.999998 0.999999 -4.999999
v 4.999999 0.999999 -4.999999
v -4.999999 0.000000 -4.999999
v -3.999998 0.000000 -4.999999
v 3.999998 0.000000 -4.999999
v 4.999999 0.000000 -4.999999
v -4.999999 0.000000 -3.999998
v -3.999998 0.000000 -3.999998
v 3.999998 0.000000 -3.999998
v 4.999999 0.000000 -3.999998
v -4.999999 0.000000 3.999998
v -3.999998 0.000000 3.999998
v 3.999998 0.000000 3.999998
v 4.999999 0.000000 3.999998
v 4.999999 0.999999 -3.999998
v 4.999999 0.999999 3.999998
v 4.999999 8.999998 -3.999998
v 4.999999 8.999998 3.999998
v -4.999999 0.999999 -3.999998
v -4.999999 0.999999 3.999998
v -4.999999 8.999998 -3.999998
v -4.999999 8.999998 3.999998
v -3.999998 9.504748 3.999998
v 3.999998 9.504748 3.999998
v 3.999998 9.504748 -3.999998
v -3.999998 9.504748 -3.999998
v -3.999998 8.999998 -4.504746
v 3.999998 8.999998 -4.504746
v 3.999998 0.999999 -4.504746
v -3.999998 0.999999 -4.504746
v 4.504746 0.999999 -3.999998
v 4.504746 0.999999 3.999998
v 4.504746 8.999998 -3.999998
v 4.504746 8.999998 3.999998
v -3.999998 0.999999 4.504746
v 3.999998 0.999999 4.504746
v 3.999998 8.999998 4.504746
v -3.999998 8.999998 4.504746
v -4.504746 0.999999 -3.999998
v -4.504746 0.999999 3.999998
v -4.504746 8.999998 3.999998
v -4.504746 8.999998 -3.999998
v -3.999998 0.495250 -3.999998
v 3.999998 0.495250 -3.999998
v 3.999998 0.495250 3.999998
v -3.999998 0.495250 3.999998
v 4.504746 0.334240 -3.600616
v 4.847614 0.334240 -3.600616
v 4.504746 8.600614 4.665760
v 4.847614 8.600614 4.665760
v 4.504746 9.665760 3.600614
v 4.847614 9.665760 3.600614
v 4.504746 1.399386 -4.665760
v 4.847614 1.399386 -4.665760
v 3.600614 9.504748 4.665759
v 3.600614 9.847613 4.665759
v -4.665760 9.504748 -3.600614
v -4.665760 9.847613 -3.600614
v -3.600614 9.504748 -4.665760
v -3.600614 9.847613 -4.665760
v 4.665760 9.504748 3.600614
v 4.665760 9.847613 3.600614
v -3.600614 0.495250 4.665759
v -3.600614 0.152383 4.665759
v 4.665760 0.495250 -3.600614
v 4.665760 0.152383 -3.600614
v 3.600614 0.495250 -4.665760
v 3.600614 0.152383 -4.665760
v -4.665760 0.495250 3.600614
v -4.665760 0.152383 3.600614
v -4.504746 9.665760 -3.600616
v -4.847614 9.665760 -3.600616
v -4.504746 1.399386 4.665760
v -4.847614 1.399386 4.665760
v -4.504746 0.334240 3.600614
v -4.847614 0.334240 3.600614
v -4.504746 8.600614 -4.665760
v -4.847614 8.600614 -4.665760
v -4.665759 1.399384 4.504746
v -4.665759 1.399384 4.847614
v 3.600614 9.665761 4.504746
v 3.600614 9.665761 4.847614
v 4.665760 8.600614 4.504746
v 4.665760 8.600614 4.847614
v -3.600614 0.334238 4.504746
v -3.600614 0.334238 4.847614
v 4.665759 1.399384 -4.504746
v 4.665759 1.399384 -4.847614
v -3.600614 9.665761 -4.504746
v -3.600614 9.665761 -4.847614
v -4.665760 8.600614 -4.504746
v -4.665760 8.600614 -4.847614
v 3.600614 0.334238 -4.504746
v 3.600614 0.334238 -4.847614
vt 0.825412 0.714169
vt 0.843469 0.704929
vt 0.849271 0.731443
vt 0.825485 0.733380
vt 0.774157 0.391956
vt 0.960217 0.391649
vt 0.960256 0.414908
vt 0.774195 0.415211
vt 0.922558 0.704998
vt 0.940637 0.714192
vt 0.940615 0.733402
vt 0.916824 0.731525
vt 0.849977 0.918751
vt 0.826178 0.916995
vt 0.312870 0.334238
vt 0.498930 0.334238
vt 0.498930 0.520299
vt 0.312870 0.520299
vt 0.940389 0.917017
vt 0.916594 0.918834
vt 0.844376 0.945310
vt 0.826250 0.936205
vt 0.557750 0.051208
vt 0.743807 0.052374
vt 0.743663 0.075628
vt 0.557606 0.074467
vt 0.940364 0.936226
vt 0.922262 0.945377
vt 0.826356 0.964257
vt 0.808191 0.945446
vt 0.743516 0.098891
vt 0.557461 0.097717
vt 0.958443 0.945423
vt 0.940329 0.964276
vt 0.969393 0.171636
vt 0.969340 0.194891
vt 0.783279 0.194473
vt 0.783334 0.171212
vt 0.372828 0.769923
vt 0.558888 0.769923
vt 0.558888 0.955982
vt 0.372828 0.955982
vt 0.557944 0.194270
vt 0.557944 0.171014
vt 0.744005 0.171014
vt 0.744004 0.194271
vt 0.475475 0.289416
vt 0.457598 0.308497
vt 0.439294 0.289826
vt 0.457281 0.280449
vt 0.970877 0.101099
vt 0.784817 0.101548
vt 0.784760 0.078297
vt 0.970819 0.077835
vt 0.332898 0.302627
vt 0.314824 0.283735
vt 0.332923 0.274578
vt 0.351006 0.283766
vt 0.433293 0.263356
vt 0.457064 0.261239
vt 0.784701 0.055038
vt 0.970759 0.054580
vt 0.332940 0.255369
vt 0.356730 0.257236
vt 0.431173 0.076059
vt 0.454984 0.077637
vt 0.769220 0.953671
vt 0.583160 0.953671
vt 0.583160 0.767612
vt 0.769220 0.767612
vt 0.333093 0.071757
vt 0.356888 0.069929
vt 0.436574 0.049462
vt 0.454767 0.058427
vt 0.958284 0.633040
vt 0.772295 0.627950
vt 0.772929 0.604706
vt 0.958921 0.609786
vt 0.333107 0.052549
vt 0.351207 0.043393
vt 0.454449 0.030380
vt 0.472754 0.049051
vt 0.773566 0.581450
vt 0.959557 0.586543
vt 0.315024 0.043361
vt 0.333130 0.024500
vt 0.773817 0.495501
vt 0.773845 0.472236
vt 0.959904 0.472460
vt 0.959876 0.495710
vt 0.538905 0.332307
vt 0.724965 0.332307
vt 0.724965 0.518367
vt 0.538905 0.518367
vt 0.959556 0.259562
vt 0.958895 0.282803
vt 0.772911 0.277526
vt 0.773571 0.254271
vt 0.807286 0.705066
vt 0.825306 0.686119
vt 0.774119 0.368697
vt 0.960179 0.368393
vt 0.940672 0.686143
vt 0.958740 0.705042
vt 0.309301 0.069890
vt 0.958237 0.306052
vt 0.772250 0.300773
vt 0.964410 0.731584
vt 0.309145 0.257198
vt 0.330074 0.557288
vt 0.516134 0.557288
vt 0.516134 0.743347
vt 0.330074 0.743347
vt 0.964180 0.918894
vt 0.557944 0.147758
vt 0.744005 0.147758
vt 0.478756 0.075519
vt 0.959850 0.518973
vt 0.773790 0.518753
vt 0.801685 0.731623
vt 0.480877 0.262818
vt 0.542117 0.563520
vt 0.728177 0.563520
vt 0.728177 0.749581
vt 0.542117 0.749581
vt 0.802392 0.918931
vt 0.783387 0.147953
vt 0.969446 0.148382
vt 0.743444 0.110413
vt 0.557389 0.109232
vt 0.744004 0.205788
vt 0.557944 0.205787
vt 0.970904 0.112621
vt 0.784846 0.113063
vt 0.969312 0.206408
vt 0.783255 0.205993
vt 0.784673 0.043513
vt 0.970732 0.043069
vt 0.368408 0.070563
vt 0.368251 0.256621
vt 0.957968 0.644561
vt 0.771978 0.639457
vt 0.421765 0.262861
vt 0.419659 0.076816
vt 0.957908 0.317569
vt 0.771924 0.312283
vt 0.297624 0.256563
vt 0.297780 0.070505
vt 0.557944 0.136240
vt 0.744005 0.136240
vt 0.975930 0.732223
vt 0.975700 0.918282
vt 0.960275 0.426427
vt 0.774215 0.426729
vt 0.905073 0.918195
vt 0.905303 0.732136
vt 0.557822 0.039683
vt 0.743879 0.040862
vt 0.860794 0.732026
vt 0.861496 0.918082
vt 0.959836 0.530498
vt 0.773776 0.530265
vt 0.790868 0.918349
vt 0.790167 0.732291
vt 0.783414 0.136432
vt 0.969473 0.136866
vt 0.490281 0.076015
vt 0.492390 0.262061
vt 0.773883 0.569931
vt 0.959873 0.575035
vt 0.773900 0.242754
vt 0.959884 0.248053
vt 0.774100 0.357178
vt 0.960160 0.356877
vt 0.773859 0.460711
vt 0.959919 0.460946
vt 0.115470 0.969760
vt 0.091767 0.943963
vt 0.291974 0.760003
vt 0.315678 0.785802
vt 0.120866 0.975633
vt 0.321074 0.791673
vt 0.086371 0.938091
vt 0.286579 0.754132
vt 0.059153 0.876907
vt 0.035449 0.851108
vt 0.235661 0.667154
vt 0.259363 0.692951
vt 0.064547 0.882779
vt 0.264759 0.698824
vt 0.030053 0.845236
vt 0.230265 0.661282
vt 0.224303 0.415689
vt 0.248007 0.441487
vt 0.047794 0.625442
vt 0.024091 0.599643
vt 0.218908 0.409817
vt 0.018696 0.593770
vt 0.253402 0.447360
vt 0.053189 0.631314
vt 0.233315 0.549528
vt 0.256923 0.575411
vt 0.056046 0.758638
vt 0.032436 0.732754
vt 0.227940 0.543636
vt 0.027061 0.726863
vt 0.262296 0.581303
vt 0.061419 0.764529
vt 0.269499 0.357885
vt 0.245889 0.383769
vt 0.045011 0.200542
vt 0.068620 0.174657
vt 0.274872 0.351992
vt 0.073994 0.168766
vt 0.240515 0.389660
vt 0.039636 0.206433
vt 0.258202 0.218597
vt 0.234499 0.244396
vt 0.034282 0.060447
vt 0.057985 0.034648
vt 0.263598 0.212725
vt 0.063380 0.028775
vt 0.229102 0.250268
vt 0.028886 0.066320
vn -0.577350 -0.577351 0.577350
vn 0.000000 -0.707108 0.707106
vn 0.221347 0.221347 0.949743
vn -0.707107 0.000000 0.707107
vn 0.000000 -0.707108 0.707106
vn -0.221347 0.221347 0.949743
vn 0.577350 -0.577351 0.577350
vn 0.707107 0.000000 0.707107
vn 0.221347 -0.221347 0.949743
vn -0.707107 0.000000 0.707107
vn 0.061671 0.061671 0.996190
vn -0.061671 0.061671 0.996190
vn -0.061671 -0.061671 0.996190
vn 0.061671 -0.061671 0.996190
vn 0.707107 0.000000 0.707107
vn -0.221347 -0.221347 0.949743
vn 0.000000 0.707107 0.707107
vn -0.577350 0.577350 0.577350
vn 0.000000 0.707107 0.707107
vn 0.577350 0.577350 0.577350
vn 0.221346 0.949743 -0.221346
vn -0.707107 0.707107 0.000000
vn -0.221346 0.949743 -0.221346
vn 0.707107 0.707107 0.000000
vn 0.221346 0.949743 0.221346
vn -0.707107 0.707107 0.000000
vn 0.061670 0.996190 -0.061671
vn -0.061670 0.996190 -0.061671
vn -0.061670 0.996190 0.061671
vn 0.061670 0.996190 0.061671
vn 0.707107 0.707107 0.000000
vn -0.221346 0.949743 0.221346
vn 0.000000 0.707107 -0.707107
vn -0.577350 0.577350 -0.577350
vn 0.000000 0.707107 -0.707107
vn 0.577350 0.577350 -0.577350
vn 0.221347 -0.221347 -0.949743
vn -0.707107 0.000000 -0.707107
vn -0.221347 -0.221347 -0.949743
vn 0.707107 0.000000 -0.707107
vn 0.221347 0.221347 -0.949743
vn -0.707107 0.000000 -0.707107
vn 0.061671 -0.061671 -0.996190
vn -0.061671 -0.061671 -0.996190
vn -0.061671 0.061671 -0.996190
vn 0.061671 0.061671 -0.996190
vn 0.707107 0.000000 -0.707107
vn -0.221347 0.221347 -0.949743
vn 0.000000 -0.707108 -0.707106
vn -0.577350 -0.577351 -0.577350
vn 0.000000 -0.707108 -0.707106
vn 0.577350 -0.577351 -0.577350
vn 0.221346 -0.949743 0.221346
vn -0.707106 -0.707108 0.000000
vn -0.221346 -0.949743 0.221346
vn 0.707106 -0.707108 0.000000
vn 0.221346 -0.949743 -0.221346
vn -0.707106 -0.707108 0.000000
vn 0.061670 -0.996189 0.061670
vn -0.061670 -0.996189 0.061670
vn -0.061670 -0.996189 -0.061670
vn 0.061670 -0.996189 -0.061670
vn 0.707106 -0.707108 0.000000
vn -0.221346 -0.949743 -0.221346
vn 0.949742 0.221347 0.221347
vn 0.949742 0.221347 -0.221347
vn 0.949743 -0.221347 0.221347
vn 0.996190 0.061671 -0.061671
vn 0.996190 0.061671 0.061671
vn 0.996190 -0.061671 0.061671
vn 0.996190 -0.061671 -0.061671
vn 0.949743 -0.221347 -0.221347
vn -0.949742 0.221347 0.221347
vn -0.949742 0.221347 -0.221347
vn -0.949743 -0.221347 0.221347
vn -0.996190 0.061671 0.061671
vn -0.996190 0.061671 -0.061671
vn -0.996190 -0.061671 -0.061671
vn -0.996190 -0.061671 0.061671
vn -0.949743 -0.221347 -0.221347
vn 0.975061 0.156935 -0.156935
vn 0.975061 -0.156935 0.156935
vn 0.975060 -0.156935 0.156935
vn 0.975061 0.156935 -0.156935
vn 0.000000 0.707107 -0.707107
vn 0.000000 0.707107 -0.707107
vn 0.000000 -0.707107 0.707107
vn 0.000000 -0.707107 0.707107
vn 0.156934 0.975061 -0.156934
vn -0.156934 0.975061 0.156934
vn -0.156934 0.975061 0.156934
vn 0.156934 0.975061 -0.156934
vn 0.707107 0.000000 -0.707107
vn 0.707107 0.000000 -0.707107
vn -0.707107 0.000000 0.707107
vn -0.707107 0.000000 0.707107
vn -0.156934 -0.975061 -0.156934
vn 0.156934 -0.975061 0.156934
vn 0.156934 -0.975061 0.156934
vn -0.156934 -0.975061 -0.156935
vn -0.707107 0.000000 -0.707107
vn -0.707107 0.000000 -0.707107
vn 0.707107 0.000000 0.707107
vn 0.707107 0.000000 0.707107
vn -0.975061 -0.156935 -0.156935
vn -0.975060 0.156935 0.156935
vn -0.975060 0.156935 0.156935
vn -0.975061 -0.156935 -0.156935
vn 0.000000 -0.707107 -0.707107
vn 0.000000 -0.707107 -0.707107
vn 0.000000 0.707107 0.707107
vn 0.000000 0.707107 0.707107
vn 0.156935 -0.156935 0.975061
vn -0.156935 0.156935 0.975061
vn -0.156935 0.156935 0.975061
vn 0.156935 -0.156935 0.975061
vn 0.707107 -0.707107 0.000000
vn 0.707107 -0.707107 0.000000
vn -0.707107 0.707107 0.000000
vn -0.707107 0.707107 0.000000
vn -0.156935 -0.156935 -0.975061
vn 0.156935 0.156935 -0.975061
vn 0.156935 0.156935 -0.975061
vn -0.156935 -0.156935 -0.975061
vn -0.707107 -0.707107 0.000000
vn -0.707107 -0.707107 0.000000
vn 0.707107 0.707107 0.000000
vn 0.707107 0.707107 0.000000
s 1
g WoodBox
usemtl initialShadingGroup
f 1/1/1 2/2/2 6/3/3 5/4/4
f 2/5/2 3/6/5 7/7/6 6/8/3
f 3/9/5 4/10/7 8/11/8 7/12/6
f 5/4/4 6/3/3 10/13/9 9/14/10
f 69/15/11 70/16/12 71/17/13 72/18/14
f 7/12/6 8/11/8 12/19/15 11/20/16
f 9/14/10 10/13/9 14/21/17 13/22/18
f 10/23/9 11/24/16 15/25/19 14/26/17
f 11/20/16 12/19/15 16/27/20 15/28/19
f 13/22/18 14/21/17 18/29/21 17/30/22
f 14/26/17 15/25/19 19/31/23 18/32/21
f 15/28/19 16/27/20 20/33/24 19/34/23
f 17/35/22 18/36/21 22/37/25 21/38/26
f 57/39/27 58/40/28 59/41/29 60/42/30
f 19/43/23 20/44/24 24/45/31 23/46/32
f 21/47/26 22/48/25 26/49/33 25/50/34
f 22/51/25 23/52/32 27/53/35 26/54/33
f 23/55/32 24/56/31 28/57/36 27/58/35
f 25/50/34 26/49/33 30/59/37 29/60/38
f 26/54/33 27/53/35 31/61/39 30/62/37
f 27/58/35 28/57/36 32/63/40 31/64/39
f 29/60/38 30/59/37 34/65/41 33/66/42
f 61/67/43 62/68/44 63/69/45 64/70/46
f 31/64/39 32/63/40 36/71/47 35/72/48
f 33/66/42 34/65/41 38/73/49 37/74/50
f 34/75/41 35/76/48 39/77/51 38/78/49
f 35/72/48 36/71/47 40/79/52 39/80/51
f 37/74/50 38/73/49 42/81/53 41/82/54
f 38/78/49 39/77/51 43/83/55 42/84/53
f 39/80/51 40/79/52 44/85/56 43/86/55
f 41/87/54 42/88/53 46/89/57 45/90/58
f 77/91/59 78/92/60 79/93/61 80/94/62
f 43/95/55 44/96/56 48/97/63 47/98/64
f 45/99/58 46/100/57 2/2/2 1/1/1
f 46/101/57 47/102/64 3/6/5 2/5/2
f 47/103/64 48/104/63 4/10/7 3/9/5
f 44/85/56 40/79/52 36/71/47 49/105/65
f 48/97/63 44/96/56 49/106/65 50/107/66
f 4/10/7 48/104/63 50/108/66 8/11/8
f 49/105/65 36/71/47 32/63/40 51/109/67
f 66/110/68 65/111/69 67/112/70 68/113/71
f 8/11/8 50/108/66 52/114/72 12/19/15
f 51/109/67 32/63/40 28/57/36 24/56/31
f 52/115/72 51/116/67 24/45/31 20/44/24
f 12/19/15 52/114/72 20/33/24 16/27/20
f 37/74/50 41/82/54 53/117/73 33/66/42
f 41/87/54 45/90/58 54/118/74 53/119/73
f 45/99/58 1/1/1 5/4/4 54/120/74
f 33/66/42 53/117/73 55/121/75 29/60/38
f 73/122/76 74/123/77 75/124/78 76/125/79
f 54/120/74 5/4/4 9/14/10 56/126/80
f 29/60/38 55/121/75 21/47/26 25/50/34
f 55/127/75 56/128/80 17/35/22 21/38/26
f 56/126/80 9/14/10 13/22/18 17/30/22
f 18/32/21 19/31/23 58/129/28 57/130/27
f 19/43/23 23/46/32 59/131/29 58/132/28
f 23/52/32 22/51/25 60/133/30 59/134/29
f 22/37/25 18/36/21 57/135/27 60/136/30
f 30/62/37 31/61/39 62/137/44 61/138/43
f 31/64/39 35/72/48 63/139/45 62/140/44
f 35/76/48 34/75/41 64/141/46 63/142/45
f 34/65/41 30/59/37 61/143/43 64/144/46
f 50/107/66 49/106/65 65/145/69 66/146/68
f 49/105/65 51/109/67 67/147/70 65/148/69
f 51/116/67 52/115/72 68/149/71 67/150/70
f 52/114/72 50/108/66 66/151/68 68/152/71
f 6/8/3 7/7/6 70/153/12 69/154/11
f 7/12/6 11/20/16 71/155/13 70/156/12
f 11/24/16 10/23/9 72/157/14 71/158/13
f 10/13/9 6/3/3 69/159/11 72/160/14
f 53/119/73 54/118/74 74/161/77 73/162/76
f 54/120/74 56/126/80 75/163/78 74/164/77
f 56/128/80 55/127/75 76/165/79 75/166/78
f 55/121/75 53/117/73 73/167/76 76/168/79
f 42/84/53 43/83/55 78/169/60 77/170/59
f 43/95/55 47/98/64 79/171/61 78/172/60
f 47/102/64 46/101/57 80/173/62 79/174/61
f 46/89/57 42/88/53 77/175/59 80/176/62
s 2
f 86/177/81 84/178/82 82/179/83 88/180/84
f 85/181/85 86/177/81 88/180/84 87/182/86
f 84/178/82 83/183/87 81/184/88 82/179/83
s 3
f 94/185/89 92/186/90 90/187/91 96/188/92
f 93/189/93 94/185/89 96/188/92 95/190/94
f 92/186/90 91/191/95 89/192/96 90/187/91
s 4
f 102/193/97 100/194/98 98/195/99 104/196/100
f 101/197/101 102/193/97 104/196/100 103/198/102
f 100/194/98 99/199/103 97/200/104 98/195/99
s 5
f 110/201/105 108/202/106 106/203/107 112/204/108
f 109/205/109 110/201/105 112/204/108 111/206/110
f 108/202/106 107/207/111 105/208/112 106/203/107
s 6
f 118/209/113 116/210/114 114/211/115 120/212/116
f 117/213/117 118/209/113 120/212/116 119/214/118
f 116/210/114 115/215/119 113/216/120 114/211/115
s 7
f 126/217/121 124/218/122 122/219/123 128/220/124
f 125/221/125 126/217/121 128/220/124 127/222/126
f 124/218/122 123/223/127 121/224/128 122/219/123
