# This file uses centimeters as units for non-parametric coordinates.

mtllib Pistol_Bullet_Window.mtl
g default
v -0.236190 8.518847 1.728164
v -0.236190 8.518847 -1.298688
v -0.632915 8.284964 1.728164
v -0.632915 8.284964 -1.298688
v -0.632915 7.429239 1.728164
v -0.632915 7.429239 -1.298688
v 0.236190 8.518847 1.728164
v 0.236190 8.518847 -1.298688
v 0.632915 8.284964 1.728164
v 0.632915 8.284964 -1.298688
v 0.632915 7.429239 1.728164
v 0.632915 7.429239 -1.298688
vt 0.066704 0.068202
vt 0.067022 0.190174
vt 0.049556 0.193372
vt 0.049221 0.065095
vt 0.014172 0.191873
vt 0.013845 0.066780
vt 0.048343 0.025505
vt 0.048884 0.232966
vt 0.085012 0.068155
vt 0.085330 0.190126
vt 0.102476 0.064956
vt 0.102812 0.193233
vt 0.138188 0.191549
vt 0.137861 0.066455
vt 0.103149 0.025362
vt 0.103691 0.232823
vn -0.236779 0.879862 0.412041
vn -0.236779 0.879862 -0.412041
vn -0.937690 0.341411 -0.064626
vn -0.937690 0.341411 0.064626
vn -0.958115 0.000000 -0.286384
vn -0.958115 0.000000 0.286385
vn 0.236779 0.879862 0.412041
vn 0.236779 0.879862 -0.412041
vn 0.937690 0.341411 0.064626
vn 0.937690 0.341411 -0.064626
vn 0.958115 0.000000 -0.286384
vn 0.958115 0.000000 0.286385
s 1
g Pistol_bullet_window
usemtl lambert2SG
f 1/1/1 2/2/2 4/3/3 3/4/4
f 6/5/5 5/6/6 3/4/4 4/3/3
f 3/4/4 5/7/6 1/1/1
f 4/3/3 2/2/2 6/8/5
f 1/1/1 7/9/7 8/10/8 2/2/2
f 7/9/7 9/11/9 10/12/10 8/10/8
f 12/13/11 10/12/10 9/11/9 11/14/12
f 5/7/6 11/15/12 7/9/7 1/1/1
f 9/11/9 7/9/7 11/15/12
f 2/2/2 8/10/8 12/16/11 6/8/5
f 10/12/10 12/16/11 8/10/8
